<svg id="Capa_1" enable-background="new 0 0 512 512" height="512" viewBox="0 0 512 512" width="512" xmlns="http://www.w3.org/2000/svg"><g><g><path d="m217.998 397.846c0 4.139 3.355 7.494 7.494 7.494s7.494-3.355 7.494-7.494v-151.781h1.03c6.887 0 12.49-5.603 12.49-12.49v-95.675c0-6.887-5.603-12.49-12.49-12.49h-162.906c-6.725 0-13.2 2.458-18.231 6.92l-48.004 42.568c-3.099 2.748-4.875 6.699-4.875 10.84s1.777 8.092 4.876 10.839l48.003 42.568c5.031 4.462 11.506 6.919 18.231 6.919h146.889v151.782zm-155.175-169.914-47.581-42.195 47.581-42.194c2.287-2.028 5.23-3.145 8.287-3.145h160.41v90.679h-160.41c-3.057 0-6-1.117-8.287-3.145z"/><path d="m507.124 247.239-48.003-42.568c-5.031-4.462-11.506-6.919-18.231-6.919h-146.888v-24.028h146.888c6.725 0 13.2-2.458 18.231-6.919l48.003-42.568c3.099-2.748 4.876-6.699 4.876-10.84s-1.777-8.092-4.876-10.84l-48.003-42.568c-5.031-4.462-11.506-6.919-18.231-6.919h-80.909c-4.139 0-7.494 3.355-7.494 7.494s3.355 7.494 7.494 7.494h80.909c3.057 0 6 1.117 8.287 3.145l47.581 42.195-47.581 42.195c-2.287 2.028-5.23 3.145-8.287 3.145h-160.41v-90.682h41.376c4.139 0 7.494-3.355 7.494-7.494s-3.355-7.494-7.494-7.494h-27.856v-38.177c0-7.989-6.5-14.489-14.489-14.489h-47.026c-7.989 0-14.489 6.5-14.489 14.489v80.107c0 4.139 3.355 7.494 7.494 7.494s7.494-3.355 7.494-7.494v-79.607h46.027v37.677h-1.03c-6.887 0-12.49 5.603-12.49 12.49v95.675c0 6.887 5.603 12.49 12.49 12.49h1.03v24.028h-1.03c-6.887 0-12.49 5.603-12.49 12.49v95.675c0 6.887 5.603 12.49 12.49 12.49h1.03v178.202h-46.027v-61.64c0-4.139-3.355-7.494-7.494-7.494s-7.494 3.355-7.494 7.494v62.14c0 7.989 6.5 14.489 14.489 14.489h47.026c7.989 0 14.489-6.5 14.489-14.489v-178.701h146.89c6.725 0 13.199-2.457 18.231-6.919l48.003-42.568c3.099-2.748 4.876-6.699 4.876-10.84 0-4.142-1.777-8.093-4.876-10.841zm-57.947 53.035c-2.287 2.029-5.23 3.146-8.287 3.146h-160.41v-90.68h160.41c3.057 0 6 1.117 8.287 3.145l47.581 42.195z"/><path d="m196.138 162.704h-47.026c-4.139 0-7.494 3.355-7.494 7.494s3.355 7.494 7.494 7.494h47.026c4.139 0 7.494-3.355 7.494-7.494s-3.356-7.494-7.494-7.494z"/><path d="m196.138 193.783h-47.026c-4.139 0-7.494 3.355-7.494 7.494s3.355 7.494 7.494 7.494h47.026c4.139 0 7.494-3.355 7.494-7.494 0-4.138-3.356-7.494-7.494-7.494z"/><path d="m443.619 235.334h-47.026c-4.139 0-7.494 3.355-7.494 7.494s3.355 7.494 7.494 7.494h47.026c4.139 0 7.494-3.355 7.494-7.494s-3.355-7.494-7.494-7.494z"/><path d="m414.876 266.414h-18.283c-4.139 0-7.494 3.355-7.494 7.494s3.355 7.494 7.494 7.494h18.283c4.139 0 7.494-3.355 7.494-7.494s-3.355-7.494-7.494-7.494z"/><path d="m396.593 105.35h47.026c4.139 0 7.494-3.355 7.494-7.494s-3.355-7.494-7.494-7.494h-47.026c-4.139 0-7.494 3.355-7.494 7.494s3.356 7.494 7.494 7.494z"/><path d="m396.593 136.43h46.471c4.139 0 7.494-3.355 7.494-7.494s-3.355-7.494-7.494-7.494h-46.471c-4.139 0-7.494 3.355-7.494 7.494s3.356 7.494 7.494 7.494z"/></g><path d="m366.725 287.498h-12.578c-5.656 0-10.257-4.601-10.257-10.256v-4.754c0-1.362-.535-2.637-1.507-3.591-.971-.954-2.258-1.462-3.624-1.441-2.583.047-4.936 2.644-4.936 5.448v4.339c0 5.655-4.601 10.256-10.256 10.256h-12.578c-5.656 0-10.257-4.601-10.257-10.256v-39.11c0-6.5 5.288-11.788 11.788-11.788h52.673c6.5 0 11.788 5.288 11.788 11.788v39.11c.001 5.653-4.6 10.255-10.256 10.255zm-7.834-15h3.091v-31.154h-46.25v31.154h3.096c.219-10.714 9.132-19.848 19.658-20.04 5.397-.103 10.54 1.938 14.407 5.735 3.868 3.798 5.998 8.875 5.998 14.294z"/><g><path d="m367.918 140.008h-58.199c-4.937 0-8.954-4.017-8.954-8.954v-24.257c0-3.275.866-6.506 2.503-9.344l4.459-7.723c1.734-3.003 4.965-4.869 8.433-4.869h.001c3.468 0 6.699 1.866 8.433 4.87l3.014 5.22 3.015-5.221c1.734-3.003 4.965-4.869 8.433-4.869s6.699 1.865 8.433 4.868l3.015 5.222 3.014-5.221c1.734-3.003 4.965-4.869 8.433-4.869s6.699 1.865 8.433 4.868l3.984 6.901c1.638 2.837 2.504 6.068 2.504 9.344v25.08c0 4.938-4.017 8.954-8.954 8.954zm-52.152-15h46.106s-.018-19.45-.053-19.655l-2.882 4.993c-1.734 3.003-4.965 4.869-8.433 4.869s-6.699-1.865-8.433-4.868l-3.015-5.222-3.015 5.221c-1.734 3.003-4.965 4.869-8.433 4.869-3.467 0-6.699-1.865-8.433-4.868l-3.012-5.216c-.26.515-.397 19.877-.397 19.877z"/></g><g><path d="m116.239 212.743h-40.459c-5.377 0-9.751-4.375-9.751-9.751v-15.905c0-3.266 1.162-6.437 3.272-8.93l18.92-22.343c1.941-2.294 4.78-3.611 7.788-3.611 3.007 0 5.847 1.315 7.79 3.611l18.919 22.342c2.111 2.494 3.273 5.665 3.273 8.931v15.905c-.001 5.377-4.375 9.751-9.752 9.751zm-35.211-15h29.962v-10.224l-14.981-17.691-14.981 17.691z"/></g></g></svg>